<svg width="2.41vw" height="2.41vw" viewBox="0 0 48 41" fill="none" xmlns="http://www.w3.org/2000/svg"><path d="M21.6 40.6154V36.1026H40.8V20.082C40.8 15.682 39.17 11.9496 35.91 8.88461C32.65 5.81966 28.68 4.28718 24 4.28718C19.32 4.28718 15.35 5.81966 12.09 8.88461C8.83 11.9496 7.2 15.682 7.2 20.082V33.8461H4.8C3.48 33.8461 2.35 33.4043 1.41 32.5205C0.47 31.6367 0 30.5744 0 29.3333V24.8205C0 24.0308 0.21 23.288 0.63 22.5923C1.05 21.8966 1.64 21.3419 2.4 20.9282L2.58 17.9385C2.9 15.3812 3.69 13.012 4.95 10.8308C6.21 8.64957 7.79 6.75043 9.69 5.13333C11.59 3.51624 13.77 2.25641 16.23 1.35385C18.69 0.451282 21.28 0 24 0C26.72 0 29.3 0.451282 31.74 1.35385C34.18 2.25641 36.36 3.50684 38.28 5.10513C40.2 6.70342 41.78 8.59316 43.02 10.7744C44.26 12.9556 45.06 15.3248 45.42 17.882L45.6 20.8154C46.36 21.1538 46.95 21.6615 47.37 22.3385C47.79 23.0154 48 23.7299 48 24.482V29.6718C48 30.4239 47.79 31.1385 47.37 31.8154C46.95 32.4923 46.36 33 45.6 33.3385V36.1026C45.6 37.3436 45.13 38.406 44.19 39.2897C43.25 40.1735 42.12 40.6154 40.8 40.6154H21.6ZM16.8 24.8205C16.12 24.8205 15.55 24.6043 15.09 24.1718C14.63 23.7393 14.4 23.2034 14.4 22.5641C14.4 21.9248 14.63 21.3889 15.09 20.9564C15.55 20.5239 16.12 20.3077 16.8 20.3077C17.48 20.3077 18.05 20.5239 18.51 20.9564C18.97 21.3889 19.2 21.9248 19.2 22.5641C19.2 23.2034 18.97 23.7393 18.51 24.1718C18.05 24.6043 17.48 24.8205 16.8 24.8205ZM31.2 24.8205C30.52 24.8205 29.95 24.6043 29.49 24.1718C29.03 23.7393 28.8 23.2034 28.8 22.5641C28.8 21.9248 29.03 21.3889 29.49 20.9564C29.95 20.5239 30.52 20.3077 31.2 20.3077C31.88 20.3077 32.45 20.5239 32.91 20.9564C33.37 21.3889 33.6 21.9248 33.6 22.5641C33.6 23.2034 33.37 23.7393 32.91 24.1718C32.45 24.6043 31.88 24.8205 31.2 24.8205ZM9.66 21.3231C9.38 17.3368 10.66 13.9145 13.5 11.0564C16.34 8.19829 19.88 6.76923 24.12 6.76923C27.68 6.76923 30.81 7.83162 33.51 9.95641C36.21 12.0812 37.84 14.7983 38.4 18.1077C34.76 18.0701 31.41 17.1487 28.35 15.3436C25.29 13.5385 22.94 11.094 21.3 8.01026C20.66 11.0188 19.31 13.6983 17.25 16.0487C15.19 18.3991 12.66 20.1573 9.66 21.3231Z"/></svg>