<svg width="2.41vw" height="2.41vw" viewBox="0 0 56 56" fill="none" xmlns="http://www.w3.org/2000/svg"><path d="M13.6498 39.9001C15.6332 38.3834 17.8498 37.1876 20.2998 36.3126C22.7498 35.4376 25.3165 35.0001 27.9998 35.0001C30.6832 35.0001 33.2498 35.4376 35.6998 36.3126C38.1498 37.1876 40.3665 38.3834 42.3498 39.9001C43.7109 38.3056 44.7707 36.4973 45.529 34.4751C46.2873 32.4529 46.6665 30.2945 46.6665 28.0001C46.6665 22.8279 44.8484 18.4237 41.2123 14.7876C37.5762 11.1515 33.1721 9.33341 27.9998 9.33341C22.8276 9.33341 18.4234 11.1515 14.7873 14.7876C11.1512 18.4237 9.33317 22.8279 9.33317 28.0001C9.33317 30.2945 9.71234 32.4529 10.4707 34.4751C11.229 36.4973 12.2887 38.3056 13.6498 39.9001ZM27.9998 30.3334C25.7054 30.3334 23.7707 29.5459 22.1957 27.9709C20.6207 26.3959 19.8332 24.4612 19.8332 22.1667C19.8332 19.8723 20.6207 17.9376 22.1957 16.3626C23.7707 14.7876 25.7054 14.0001 27.9998 14.0001C30.2943 14.0001 32.229 14.7876 33.804 16.3626C35.379 17.9376 36.1665 19.8723 36.1665 22.1667C36.1665 24.4612 35.379 26.3959 33.804 27.9709C32.229 29.5459 30.2943 30.3334 27.9998 30.3334ZM27.9998 51.3334C24.7721 51.3334 21.7387 50.7209 18.8998 49.4959C16.0609 48.2709 13.5915 46.6084 11.4915 44.5084C9.3915 42.4084 7.729 39.939 6.504 37.1001C5.279 34.2612 4.6665 31.2279 4.6665 28.0001C4.6665 24.7723 5.279 21.739 6.504 18.9001C7.729 16.0612 9.3915 13.5917 11.4915 11.4917C13.5915 9.39175 16.0609 7.72925 18.8998 6.50425C21.7387 5.27925 24.7721 4.66675 27.9998 4.66675C31.2276 4.66675 34.2609 5.27925 37.0998 6.50425C39.9387 7.72925 42.4082 9.39175 44.5082 11.4917C46.6082 13.5917 48.2707 16.0612 49.4957 18.9001C50.7207 21.739 51.3332 24.7723 51.3332 28.0001C51.3332 31.2279 50.7207 34.2612 49.4957 37.1001C48.2707 39.939 46.6082 42.4084 44.5082 44.5084C42.4082 46.6084 39.9387 48.2709 37.0998 49.4959C34.2609 50.7209 31.2276 51.3334 27.9998 51.3334ZM27.9998 46.6667C30.0609 46.6667 32.0054 46.3654 33.8332 45.7626C35.6609 45.1598 37.3332 44.2945 38.8498 43.1667C37.3332 42.039 35.6609 41.1737 33.8332 40.5709C32.0054 39.9681 30.0609 39.6667 27.9998 39.6667C25.9387 39.6667 23.9943 39.9681 22.1665 40.5709C20.3387 41.1737 18.6665 42.039 17.1498 43.1667C18.6665 44.2945 20.3387 45.1598 22.1665 45.7626C23.9943 46.3654 25.9387 46.6667 27.9998 46.6667ZM27.9998 25.6667C29.0109 25.6667 29.8471 25.3362 30.5082 24.6751C31.1693 24.014 31.4998 23.1779 31.4998 22.1667C31.4998 21.1556 31.1693 20.3195 30.5082 19.6584C29.8471 18.9973 29.0109 18.6667 27.9998 18.6667C26.9887 18.6667 26.1526 18.9973 25.4915 19.6584C24.8304 20.3195 24.4998 21.1556 24.4998 22.1667C24.4998 23.1779 24.8304 24.014 25.4915 24.6751C26.1526 25.3362 26.9887 25.6667 27.9998 25.6667Z"/></svg>