<svg width="2.41vw" height="2.41vw" viewBox="0 0 56 56" fill="none" xmlns="http://www.w3.org/2000/svg"><g clip-path="url(#clip0_599_322)"><path d="M9.33317 46.6666C8.04984 46.6666 6.95123 46.2096 6.03734 45.2958C5.12345 44.3819 4.6665 43.2833 4.6665 41.9999V13.9999C4.6665 12.7166 5.12345 11.618 6.03734 10.7041C6.95123 9.7902 8.04984 9.33325 9.33317 9.33325H46.6665C47.9499 9.33325 49.0485 9.7902 49.9624 10.7041C50.8762 11.618 51.3332 12.7166 51.3332 13.9999V27.9999H9.33317V41.9999H32.6665V46.6666H9.33317ZM9.33317 18.6666H46.6665V13.9999H9.33317V18.6666ZM44.3332 51.3333V44.3333H37.3332V39.6666H44.3332V32.6666H48.9999V39.6666H55.9999V44.3333H48.9999V51.3333H44.3332Z"/></g><defs><clipPath id="clip0_599_322"><rect width="56" height="56"/></clipPath></defs></svg>