<svg xmlns="http://www.w3.org/2000/svg" width="12" height="8" viewBox="0 0 12 8" fill="none"><path d="M1.90162 0.647483L1.90182 0.647286L1.89621 0.642194C1.64882 0.417616 1.29427 0.446016 1.07481 0.714523C0.84173 0.999685 0.84173 1.45525 1.07481 1.74041L5.60717 7.28559L5.60696 7.28576L5.61198 7.29106L5.67027 7.35263L5.67007 7.35282L5.67568 7.35792C5.92307 7.5825 6.27762 7.55409 6.49708 7.28559L11.0294 1.74041L11.0296 1.74057L11.0337 1.73478L11.084 1.66346L11.0842 1.6636L11.0878 1.65766C11.2596 1.37437 11.2421 0.974747 11.0294 0.714523L11.0296 0.714354L11.0246 0.709056L10.9663 0.647484L10.9665 0.647287L10.9609 0.642194C10.7135 0.417616 10.359 0.446016 10.1395 0.714523L10.217 0.777808L10.1395 0.714524L6.05212 5.71551L1.96472 0.714524L1.96493 0.714356L1.95991 0.709055L1.90162 0.647483Z" fill="#210F60" stroke="#210F60" stroke-width="0.2"/></svg>