<svg width="2.41vw" height="2.41vw" viewBox="0 0 48 33" fill="none" xmlns="http://www.w3.org/2000/svg"><path d="M28.3636 18.225C26.5455 18.225 25 17.6344 23.7273 16.4531C22.4545 15.2719 21.8182 13.8375 21.8182 12.15C21.8182 10.4625 22.4545 9.02813 23.7273 7.84688C25 6.66563 26.5455 6.075 28.3636 6.075C30.1818 6.075 31.7273 6.66563 33 7.84688C34.2727 9.02813 34.9091 10.4625 34.9091 12.15C34.9091 13.8375 34.2727 15.2719 33 16.4531C31.7273 17.6344 30.1818 18.225 28.3636 18.225ZM13.0909 24.3C11.8909 24.3 10.8636 23.9035 10.0091 23.1103C9.15455 22.3172 8.72727 21.3638 8.72727 20.25V4.05C8.72727 2.93625 9.15455 1.98281 10.0091 1.18969C10.8636 0.396563 11.8909 0 13.0909 0H43.6364C44.8364 0 45.8636 0.396563 46.7182 1.18969C47.5727 1.98281 48 2.93625 48 4.05V20.25C48 21.3638 47.5727 22.3172 46.7182 23.1103C45.8636 23.9035 44.8364 24.3 43.6364 24.3H13.0909ZM17.4545 20.25H39.2727C39.2727 19.1363 39.7 18.1828 40.5545 17.3897C41.4091 16.5966 42.4364 16.2 43.6364 16.2V8.10001C42.4364 8.10001 41.4091 7.70344 40.5545 6.91032C39.7 6.11719 39.2727 5.16375 39.2727 4.05H17.4545C17.4545 5.16375 17.0273 6.11719 16.1727 6.91032C15.3182 7.70344 14.2909 8.10001 13.0909 8.10001V16.2C14.2909 16.2 15.3182 16.5966 16.1727 17.3897C17.0273 18.1828 17.4545 19.1363 17.4545 20.25ZM41.4545 32.4H4.36364C3.16364 32.4 2.13636 32.0035 1.28182 31.2103C0.427273 30.4172 0 29.4638 0 28.35V6.075H4.36364V28.35H41.4545V32.4Z"/></svg>